<?xml version="1.0" encoding="utf-8"?>
<!-- Generator: Adobe Illustrator 23.0.6, SVG Export Plug-In . SVG Version: 6.00 Build 0)  -->
<svg version="1.1" id="Line__x26__Text" xmlns="http://www.w3.org/2000/svg" xmlns:xlink="http://www.w3.org/1999/xlink" x="0px"
	 y="0px" viewBox="0 0 617 116" style="enable-background:new 0 0 617 116;" xml:space="preserve">
<style type="text/css">
	.st0{fill:#FEFEFE;}
</style>
<g>
	<path class="st0" d="M32.8,53.7v20c12-6,26.1-9.4,39.3-9.4s27.3,3.4,39.3,9.4v-20c-12-6.2-26.1-9.7-39.3-9.7
		C59,44,44.8,47.5,32.8,53.7z M49.4,53.4c-1,0.3-2,0.6-3.1,0.9v-1.1L42,54.8v3.3c0,0,4-1.5,5.7-2l1.8,1.2V62l-2.5,3.2
		c-1.9,0.6-3.8,1.3-5.7,2c-0.7-0.5-1.5-0.9-2.2-1.4V64c1-0.4,2-0.8,3-1.2v1.7l0.4-0.2c1.2-0.5,4-1.4,4-1.4v-4.2c0,0-4.1,1.4-5.8,2
		L39,59.7v-3.9l2.4-3.3c1.9-0.7,3.8-1.4,5.7-2c0.8,0.5,1.6,1,2.3,1.5V53.4z M59.6,50.2v9.6c0,0,1.2-0.2,1.2-0.2v2.5
		c-1.9,0.2-3.7,0.6-5.6,0.9v-2.5l1.2-0.2c0,0,0-9.6,0-9.6l-2.6,0.5v1.7c-0.8,0.2-1.6,0.4-2.4,0.6v-4.2c4.4-1.1,8.8-1.8,13.3-2.2v4.2
		c-0.8,0.1-1.6,0.2-2.5,0.2v-1.7L59.6,50.2z M93,61.6l1.2,0.3c0,0,0-9.6,0-9.6c0,0-1.2-0.3-1.2-0.3v-2.5c3.9,1,7.9,2.4,11.6,4v3.4
		c-1-0.4-2-0.8-3-1.2v-0.9c0,0-4.4-1.5-4.4-1.5v3.5c0,0,2.8,0.9,4.1,1.4v2.2c-1.2-0.5-4.1-1.4-4.1-1.4v3.8l4.4,1.5v-1.1
		c1,0.4,2,0.8,3,1.2V68c-3.8-1.6-7.7-2.9-11.6-3.9V61.6z M77.5,47c4.5,0.3,8.9,1,13.3,2v4.2c-0.8-0.2-1.6-0.4-2.4-0.5V51l-2.7-0.5
		V60c0,0,1.2,0.2,1.2,0.2v2.5c-1.9-0.3-3.7-0.6-5.6-0.8v-2.5l1.2,0.1c0,0,0-9.6,0-9.6L80,49.7v1.7c-0.8-0.1-1.6-0.1-2.5-0.2V47z
		 M77,59c0,0,0.9,0.1,1.3,0.1v2.5c-1.8-0.1-3.6-0.2-5.4-0.2v-2.5l1.2,0c0,0-0.8-2.3-0.8-2.3l-4.8,0.1L67.7,59c0,0,1.2,0,1.2,0v2.5
		c-1.7,0.1-3.4,0.2-5.1,0.3v-2.5l1.2-0.1c0,0,4.4-12.3,4.4-12.3c1.1,0,2.3,0,3.5,0L77,59z"/>
	<path class="st0" d="M122.1,60.6l4.3-9.5c-7.1-5.3-17.8-9.6-17.8-9.6l3.7-6V24.9H85.1l-9.3,14.5c-1.2,0-2.4-0.1-3.7-0.1
		c-1.2,0-2.4,0-3.7,0.1l-9.3-14.5H31.9v10.5l3.7,6c0,0-10.7,4.3-17.8,9.6l4.3,9.5l-6.3,20.2c0,0,5.5-3.8,12.2-7.8v8.9
		c0,0,3.6-2.3,7-4L32,82.6v10.8h29.9V71.1l10.3,16.3l10.3-16.3v22.3h29.9V82.6l-3.2-4.8c3.5,1.7,7,4,7,4v-8.9
		c6.7,4,12.2,7.8,12.2,7.8L122.1,60.6z M114.2,69.6l0,8.5c-2.5-1.5-5.1-2.8-7.9-4v3.6l3.7,5.7v7.8H84.8V68c-0.9-0.1-1.8-0.2-2.8-0.3
		l-9.8,15.5l-9.8-15.5c-0.9,0.1-1.8,0.2-2.8,0.3v23.2H34.2v-7.8l3.7-5.7V74c-2.7,1.2-5.4,2.5-7.9,4v-8.5c-3.3,1.7-7,3.8-10.6,6.2
		l4.8-15.4l-4-8.7c5.4-3.5,11.4-6.6,17.6-9v-1.9l-3.7-6v-7.6H58l9.2,14.3c1.7-0.1,3.3-0.2,5-0.2c1.7,0,3.3,0.1,5,0.2l9.2-14.3h23.7
		v7.6l-3.7,6v1.9c6.2,2.4,12.2,5.4,17.6,9l-4,8.7l4.8,15.4C121.2,73.4,117.5,71.2,114.2,69.6z"/>
	<path class="st0" d="M38,45.4c-5.2,2-9.9,4.4-14.4,7.2l3.4,7.5L23.9,70c2-1.2,4.1-2.2,6.2-3.3V52.1c2.4-1.2,5.9-2.9,7.9-3.7V45.4z"
		/>
	<polygon class="st0" points="69.3,54.4 72.6,54.4 71,49.9 	"/>
	<path class="st0" d="M117.3,60.1l3.4-7.5c-4.5-2.8-9.2-5.2-14.4-7.2v2.9c2,0.8,5.5,2.5,7.9,3.7v14.7c2.1,1,4.2,2.1,6.2,3.3
		L117.3,60.1z"/>
</g>
<g>
	<g>
		<g>
			<path class="st0" d="M178.8,48.6v-8.8l-4.2,7.7l-4.2-7.7v8.8l1.3,0.9v2.6h-6.7v-2.6l1.3-0.9V36.1l-1.3-0.9v-2.6h5.8l3.7,6.9
				l3.9-6.9h5.7v2.6l-1.3,0.9v12.5l1.3,0.9v2.6h-6.7v-2.6L178.8,48.6z"/>
			<path class="st0" d="M194.4,52.1h-7.2v-2.6l1.4-0.9V36.2l-1.4-0.9v-2.6h7.2v2.6l-1.4,0.9v12.5l1.4,0.9V52.1z"/>
			<path class="st0" d="M210.1,35.5l0.3,0.3V38H206v-0.9l-0.5-0.5h-3l-0.5,0.5v2.8L202,40h6.1l2.1,2.2l0.3,0.3v6.3l-3,3.3h-6.9
				l-2.7-3.1l-0.2-0.3v-2.7h4.4v1.5l0.6,0.7h2.9l0.6-0.7v-3.8l-0.1-0.1h-6.2l-2.2-2.6v-5.3l2.6-2.9l0.3-0.3h7L210.1,35.5z"/>
			<path class="st0" d="M226,35.5l0.3,0.3V38h-4.4v-0.9l-0.5-0.5h-3l-0.5,0.5v2.8l0.1,0.1h6.1l2.1,2.2l0.3,0.3v6.3l-3,3.3h-6.9
				l-2.7-3.1l-0.2-0.3v-2.7h4.4v1.5l0.6,0.7h2.9l0.6-0.7v-3.8l-0.1-0.1h-6.2l-2.2-2.6v-5.3l2.6-2.9l0.3-0.3h7L226,35.5z"/>
			<path class="st0" d="M236.5,52.1h-7.2v-2.6l1.4-0.9V36.2l-1.4-0.9v-2.6h7.2v2.6l-1.4,0.9v12.5l1.4,0.9V52.1z"/>
			<path class="st0" d="M252.2,35.5l0.3,0.3V38H248v-0.9l-0.5-0.5h-3l-0.5,0.5v2.8L244,40h6.1l2.1,2.2l0.3,0.3v6.3l-3,3.3h-6.9
				l-2.7-3.1l-0.2-0.3v-2.7h4.4v1.5l0.6,0.7h2.9l0.6-0.7v-3.8l-0.1-0.1h-6.2l-2.2-2.6v-5.3l2.6-2.9l0.3-0.3h7L252.2,35.5z"/>
			<path class="st0" d="M268.1,35.5l0.3,0.3V38H264v-0.9l-0.5-0.5h-3l-0.5,0.5v2.8L260,40h6.1l2.1,2.2l0.3,0.3v6.3l-3,3.3h-6.9
				l-2.7-3.1l-0.2-0.3v-2.7h4.4v1.5l0.6,0.7h2.9l0.6-0.7v-3.8l-0.1-0.1h-6.2l-2.2-2.6v-5.3l2.6-2.9l0.3-0.3h7L268.1,35.5z"/>
			<path class="st0" d="M278.6,52.1h-7.2v-2.6l1.4-0.9V36.2l-1.4-0.9v-2.6h7.2v2.6l-1.4,0.9v12.5l1.4,0.9V52.1z"/>
			<path class="st0" d="M295.4,35.6l0.3,0.3v6.3l-2.7,2.9l-0.3,0.3h-5.3v3.2l1.5,0.9v2.6h-7.2v-2.6l1.4-0.9V36.2l-1.4-0.9v-2.6h11.1
				L295.4,35.6z M291.3,37.1l-0.5-0.5h-3.4v4.8h3.4l0.5-0.5V37.1z"/>
			<path class="st0" d="M312,35.6l0.3,0.3v6.3l-2.7,2.9l-0.3,0.3H304v3.2l1.5,0.9v2.6h-7.2v-2.6l1.4-0.9V36.2l-1.4-0.9v-2.6h11.1
				L312,35.6z M307.9,37.1l-0.5-0.5H304v4.8h3.4l0.5-0.5V37.1z"/>
			<path class="st0" d="M321.9,52.1h-7.2v-2.6l1.4-0.9V36.2l-1.4-0.9v-2.6h7.2v2.6l-1.4,0.9v12.5l1.4,0.9V52.1z"/>
			<path class="st0" d="M348,35.5l0.3,0.3V38h-4.4v-0.9l-0.5-0.5h-3l-0.5,0.5v2.8l0.1,0.1h6.1l2.1,2.2l0.3,0.3v6.3l-3,3.3h-6.9
				l-2.7-3.1l-0.2-0.3v-2.7h4.4v1.5l0.6,0.7h2.9l0.6-0.7v-3.8l-0.1-0.1h-6.2l-2.2-2.6v-5.3l2.6-2.9l0.3-0.3h7L348,35.5z"/>
			<path class="st0" d="M350.4,32.6h15.7v6.2h-3.6v-2.1h-2v12l1.4,0.9v2.6h-7.1v-2.6l1.4-0.9v-12h-2v2.1h-3.6V32.6z"/>
			<path class="st0" d="M381.4,49.6v2.6h-6.8v-2.6l1.3-0.8l-0.8-2.7h-4.5l-0.9,2.7l1.3,0.8v2.6h-6.5v-2.5l1.3-1l4.7-15.3l0.2-0.7
				h4.5l4.7,15.9L381.4,49.6z M374,42.4l-1.1-3.9l-1.2,3.9H374z"/>
			<path class="st0" d="M379.7,32.6h15.7v6.2h-3.6v-2.1h-2v12l1.4,0.9v2.6H384v-2.6l1.4-0.9v-12h-2v2.1h-3.6V32.6z"/>
			<path class="st0" d="M397.6,32.6h14.2v6.1h-4.4v-2.1h-4.1v3.7h4.7v3.7h-4.7v4.1h4.1v-1.4h4.4v5.4h-14.2v-2.6l1.4-0.9V36.2
				l-1.4-0.9V32.6z"/>
			<path class="st0" d="M434.1,32.6h6.9v2.7l-1.6,0.9v12.7l-2.7,2.9l-0.3,0.3h-6.9l-3-3.2V36.2l-1.4-0.9v-2.6h6.6v2.5L431,36v11.6
				l0.5,0.5h3l0.5-0.5V36l-0.9-0.9V32.6z"/>
			<path class="st0" d="M450.7,49.5v2.6h-6.6v-2.6l1.4-0.9V36.2l-1.4-0.9v-2.6h5.9l5.7,10.8v-7.3l-1.2-0.9v-2.6h6.4v2.6l-1.3,0.9v16
				h-4.1l-6.2-11.9v8.3L450.7,49.5z"/>
			<path class="st0" d="M471.2,52.1H464v-2.6l1.4-0.9V36.2l-1.4-0.9v-2.6h7.2v2.6l-1.4,0.9v12.5l1.4,0.9V52.1z"/>
			<path class="st0" d="M483.3,32.6h7.4v2.7l-2,1L484,52.1h-3.8l-4.9-15.9l-1.8-1v-2.7h7.1v2.6l-1.2,0.8l2.6,8.5l2.6-8.5l-1.3-0.8
				V32.6z"/>
			<path class="st0" d="M492.8,32.6h14.2v6.1h-4.4v-2.1h-4.1v3.7h4.7v3.7h-4.7v4.1h4.1v-1.4h4.4v5.4h-14.2v-2.6l1.4-0.9V36.2
				l-1.4-0.9V32.6z"/>
			<path class="st0" d="M525.7,49.6v2.5h-6.5v-2.6l0.9-0.7l-2-4.5h-2.2v4.3l1,0.9v2.5h-6.7v-2.6l1.3-0.9V36.1l-1.3-0.9v-2.6h11
				l3,3.2v5.4l-2,2.1l2.3,5.2L525.7,49.6z M519.8,37.1l-0.6-0.5h-3.3v3.8h3.2l0.6-0.7V37.1z"/>
			<path class="st0" d="M540.8,35.5l0.3,0.3V38h-4.4v-0.9l-0.5-0.5h-3l-0.5,0.5v2.8l0.1,0.1h6.1l2.1,2.2l0.3,0.3v6.3l-3,3.3h-6.9
				l-2.7-3.1l-0.2-0.3v-2.7h4.4v1.5l0.6,0.7h2.9l0.6-0.7v-3.8l-0.1-0.1h-6.2l-2.2-2.6v-5.3l2.6-2.9l0.3-0.3h7L540.8,35.5z"/>
			<path class="st0" d="M551.3,52.1h-7.2v-2.6l1.4-0.9V36.2l-1.4-0.9v-2.6h7.2v2.6l-1.4,0.9v12.5l1.4,0.9V52.1z"/>
			<path class="st0" d="M553.5,32.6h15.7v6.2h-3.6v-2.1h-2v12l1.4,0.9v2.6h-7.1v-2.6l1.4-0.9v-12h-2v2.1h-3.6V32.6z"/>
			<path class="st0" d="M580.4,32.6h6.4v2.5l-1.3,1.1l-4.3,8.5v3.9l1.4,0.9v2.6h-7.1v-2.6l1.3-0.9v-3.9l-4.3-8.5l-1.2-1.1v-2.5h6.3
				v2.5l-0.8,0.7l2.2,4.2l2.1-4.2l-0.8-0.7V32.6z"/>
		</g>
		<g>
			<polyline class="st0" points="144.4,17.7 144.4,98.6 147.1,98.6 147.1,17.7 			"/>
		</g>
		<g>
			<path class="st0" d="M167.4,60.6v11.5c0,1.1,0.1,1.9,0.2,2.5c0.1,0.5,0.4,1,0.7,1.5c0.4,0.5,0.9,0.9,1.6,1.2
				c0.7,0.3,1.4,0.5,2.1,0.5c0.7,0,1.4-0.2,2.1-0.5c0.7-0.3,1.2-0.7,1.6-1.2c0.3-0.4,0.6-0.9,0.7-1.5c0.1-0.6,0.2-1.4,0.2-2.5V60.6
				h2.1v12c0,1.2-0.1,2.1-0.4,2.8c-0.3,0.8-0.7,1.4-1.3,2.1c-1.3,1.4-3,2.1-5,2.1c-2,0-3.7-0.7-5-2.1c-0.6-0.6-1-1.3-1.3-2.1
				c-0.3-0.7-0.4-1.7-0.4-2.8v-12H167.4z"/>
			<path class="st0" d="M184,79.3V59.8l14.6,15.3V60.6h2.1v19.6l-14.6-15.3v14.4H184z"/>
			<path class="st0" d="M208.2,60.6v18.7h-2.1V60.6H208.2z"/>
			<path class="st0" d="M213.6,60.6l5.3,14.3l5.3-14.3h2.3l-7.6,19.8l-7.6-19.8H213.6z"/>
			<path class="st0" d="M239.3,62.5h-7.6v5.6h7.4v2h-7.4v7.3h7.6v2h-9.7V60.6h9.7V62.5z"/>
			<path class="st0" d="M248.5,70.9l5.9,8.4h-2.5l-5.7-8.2h-0.5v8.2h-2.1V60.6h3c2.2,0,3.9,0.4,4.9,1.3c1.1,1,1.7,2.3,1.7,3.9
				c0,1.4-0.4,2.6-1.3,3.5C251.1,70.3,249.9,70.8,248.5,70.9z M245.7,69.3h1.3c1.3,0,2.4-0.3,3.1-0.9c0.7-0.6,1.1-1.4,1.1-2.5
				c0-2.2-1.4-3.3-4.2-3.3h-1.2V69.3z"/>
			<path class="st0" d="M268.2,63.2l-1.7,1.1c-0.5-0.8-0.9-1.3-1.4-1.6c-0.5-0.3-1.1-0.4-1.8-0.4c-0.9,0-1.6,0.3-2.2,0.8
				c-0.6,0.5-0.9,1.2-0.9,2.1c0,1.1,0.9,2,2.6,2.8l1.8,0.8c1.5,0.7,2.6,1.4,3.2,2.2c0.7,0.8,1,1.8,1,3c0,1.6-0.6,3-1.7,4.1
				c-1.2,1.1-2.6,1.7-4.2,1.7c-1.5,0-2.7-0.4-3.7-1.3c-1-0.8-1.7-2-2-3.6l2-0.6c0.5,2.3,1.8,3.4,3.8,3.4c1,0,1.9-0.4,2.7-1.1
				c0.7-0.7,1.1-1.6,1.1-2.6c0-0.8-0.2-1.4-0.7-2c-0.5-0.5-1.3-1-2.5-1.6l-1.7-0.8c-0.7-0.3-1.3-0.6-1.7-0.9c-0.5-0.3-0.9-0.7-1.2-1
				c-0.6-0.7-0.9-1.6-0.9-2.6c0-1.4,0.5-2.5,1.5-3.5c1-0.9,2.3-1.4,3.8-1.4C265.5,60.3,267.1,61.2,268.2,63.2z"/>
			<path class="st0" d="M275.3,60.6v18.7h-2.1V60.6H275.3z"/>
			<path class="st0" d="M285.3,62.5v16.8h-2.1V62.5h-4.5v-2h11.2v2H285.3z"/>
			<path class="st0" d="M298.1,71.3L292,60.6h2.4l4.8,8.4l4.8-8.4h2.4l-6.2,10.7v8h-2.1V71.3z"/>
			<path class="st0" d="M322.6,70.9l5.9,8.4H326l-5.7-8.2h-0.5v8.2h-2.1V60.6h3c2.2,0,3.9,0.4,4.9,1.3c1.1,1,1.7,2.3,1.7,3.9
				c0,1.4-0.4,2.6-1.3,3.5C325.2,70.3,324,70.8,322.6,70.9z M319.8,69.3h1.3c1.3,0,2.4-0.3,3.1-0.9c0.7-0.6,1.1-1.4,1.1-2.5
				c0-2.2-1.4-3.3-4.2-3.3h-1.2V69.3z"/>
			<path class="st0" d="M342,62.5h-7.6v5.6h7.4v2h-7.4v7.3h7.6v2h-9.7V60.6h9.7V62.5z"/>
			<path class="st0" d="M360.7,62.1v2.6c-1.8-1.6-3.7-2.5-5.7-2.5c-2.1,0-3.8,0.8-5.3,2.3c-1.5,1.5-2.2,3.3-2.2,5.5
				c0,2.3,0.9,4.2,2.6,5.7c1.5,1.3,3.2,2,5,2c2,0,3.9-0.8,5.7-2.4v2.6c-1.8,1.2-3.7,1.8-5.6,1.8c-2.7,0-4.9-0.9-6.8-2.8
				c-1.9-1.9-2.9-4.2-2.9-6.8c0-2.7,1-5,2.9-6.9c1.9-1.9,4.2-2.9,6.9-2.9C357.1,60.3,358.9,60.9,360.7,62.1z"/>
			<path class="st0" d="M369.9,70.9l5.9,8.4h-2.5l-5.7-8.2h-0.5v8.2H365V60.6h3c2.2,0,3.9,0.4,4.9,1.3c1.1,1,1.7,2.3,1.7,3.9
				c0,1.4-0.4,2.6-1.3,3.5C372.5,70.3,371.3,70.8,369.9,70.9z M367.1,69.3h1.3c1.3,0,2.4-0.3,3.1-0.9c0.7-0.6,1.1-1.4,1.1-2.5
				c0-2.2-1.4-3.3-4.2-3.3h-1.2V69.3z"/>
			<path class="st0" d="M389.3,62.5h-7.6v5.6h7.4v2h-7.4v7.3h7.6v2h-9.7V60.6h9.7V62.5z"/>
			<path class="st0" d="M403.9,74h-8l-2.3,5.3h-2.3l8.6-19.6l8.4,19.6h-2.3L403.9,74z M403.1,72.1l-3.1-7.5l-3.2,7.5H403.1z"/>
			<path class="st0" d="M415,62.5v16.8h-2.1V62.5h-4.5v-2h11.2v2H415z"/>
			<path class="st0" d="M425,60.6v18.7h-2.1V60.6H425z"/>
			<path class="st0" d="M429.3,69.8c0-2.6,1-4.8,2.9-6.7c1.9-1.9,4.2-2.8,6.9-2.8c2.7,0,5,1,6.9,2.9c1.9,1.9,2.9,4.2,2.9,6.8
				c0,2.7-1,5-2.9,6.9c-1.9,1.9-4.2,2.8-6.9,2.8c-2.4,0-4.5-0.8-6.5-2.5C430.3,75.2,429.3,72.8,429.3,69.8z M431.4,69.8
				c0,2.3,0.8,4.2,2.4,5.7c1.5,1.4,3.3,2.1,5.2,2.1c2.1,0,4-0.8,5.5-2.3c1.5-1.5,2.2-3.3,2.2-5.5c0-2.2-0.7-4-2.2-5.5
				c-1.5-1.5-3.3-2.3-5.4-2.3c-2.1,0-3.9,0.7-5.4,2.2C432.1,66,431.4,67.8,431.4,69.8z"/>
			<path class="st0" d="M453.1,79.3V59.8l14.6,15.3V60.6h2.1v19.6l-14.6-15.3v14.4H453.1z"/>
		</g>
	</g>
	<g>
		<path class="st0" d="M593.8,45.3v1.1h-2.2v5.7h-1.4v-5.7h-2.2v-1.1H593.8z M601.1,52.1l-0.3-4c0-0.5,0-1.2,0-1.9h-0.1
			c-0.2,0.6-0.4,1.4-0.6,2L599,52h-1.4l-1.2-3.9c-0.1-0.5-0.3-1.3-0.5-1.9h-0.1c0,0.6,0,1.3-0.1,1.9l-0.2,4h-1.3l0.5-6.8h2l1.2,3.3
			c0.1,0.5,0.3,1,0.5,1.7h0c0.2-0.6,0.3-1.2,0.5-1.7l1.2-3.4h2l0.5,6.8H601.1z"/>
	</g>
</g>
</svg>
