<?xml version="1.0" encoding="utf-8"?>
<!-- Generator: Adobe Illustrator 23.0.6, SVG Export Plug-In . SVG Version: 6.00 Build 0)  -->
<svg version="1.1" xmlns="http://www.w3.org/2000/svg" xmlns:xlink="http://www.w3.org/1999/xlink" x="0px" y="0px"
	 viewBox="0 0 300 178.4" style="enable-background:new 0 0 300 178.4;" xml:space="preserve">
<style type="text/css">
	.st0{fill:#FEFEFE;}
	.st1{display:none;}
	.st2{display:inline;}
	.st3{fill:#FFFFFF;}
	.st4{fill:#5D1725;}
</style>
<g id="White_Outline_MSState">
	<g>
		<path class="st0" d="M113.8,39.9v18.2c10.9-5.5,23.7-8.5,35.7-8.5s24.8,3.1,35.7,8.5V39.9c-10.9-5.7-23.7-8.8-35.7-8.8
			C137.5,31.1,124.7,34.3,113.8,39.9z M128.9,39.6c-0.9,0.3-1.9,0.5-2.8,0.8v-1l-4,1.4v3c0,0,3.7-1.3,5.1-1.8l1.6,1v4.3l-2.3,2.9
			c-1.7,0.5-3.5,1.1-5.2,1.8c-0.7-0.4-1.4-0.8-2-1.2v-1.6c0.9-0.4,1.8-0.7,2.7-1.1v1.6l0.4-0.1c1.1-0.4,3.6-1.2,3.6-1.2v-3.8
			c0,0-3.7,1.3-5.2,1.9l-1.4-1v-3.5l2.2-3c1.7-0.7,3.4-1.3,5.1-1.8c0.7,0.5,1.4,0.9,2.1,1.4V39.6z M138.1,36.7v8.7
			c0,0,1.1-0.2,1.1-0.2v2.3c-1.7,0.2-3.4,0.5-5.1,0.8v-2.3l1.1-0.2c0,0,0-8.7,0-8.7l-2.4,0.5v1.5c-0.7,0.2-1.5,0.3-2.2,0.5v-3.8
			c4-1,8-1.7,12-2v3.8c-0.7,0.1-1.5,0.1-2.2,0.2v-1.5L138.1,36.7z M168.4,47.1l1.1,0.3c0,0,0-8.7,0-8.7c0,0-1.1-0.3-1.1-0.3v-2.3
			c3.6,0.9,7.1,2.1,10.5,3.6v3c-0.9-0.4-1.8-0.7-2.7-1.1v-0.8c0,0-4-1.4-4-1.4v3.2c0,0,2.6,0.9,3.7,1.3v2c-1.1-0.4-3.7-1.3-3.7-1.3
			v3.5l4,1.4v-1c0.9,0.3,1.8,0.7,2.7,1.1v3.2c-3.4-1.4-7-2.6-10.5-3.6V47.1z M154.3,33.8c4,0.3,8.1,0.9,12.1,1.8v3.8
			c-0.7-0.2-1.5-0.3-2.2-0.5v-1.5l-2.4-0.4v8.7c0,0,1.1,0.2,1.1,0.2v2.3c-1.7-0.3-3.4-0.6-5.1-0.8v-2.3l1.1,0.1c0,0,0-8.7,0-8.7
			l-2.4-0.3v1.5c-0.7-0.1-1.5-0.1-2.2-0.2V33.8z M153.9,44.7c0,0,0.8,0.1,1.2,0.1v2.3c-1.6-0.1-3.2-0.2-4.9-0.2v-2.3l1.1,0
			c0,0-0.7-2.1-0.7-2.1l-4.3,0l-0.8,2.1c0,0,1.1,0,1.1,0v2.3c-1.5,0.1-3.1,0.2-4.6,0.3v-2.3l1.1-0.1c0,0,4-11.2,4-11.2
			c1,0,2.1,0,3.1,0L153.9,44.7z"/>
		<path class="st0" d="M194.8,46.1l3.9-8.6c-6.5-4.8-16.2-8.7-16.2-8.7l3.4-5.4v-9.6h-24.7l-8.4,13.1c-1.1,0-2.2-0.1-3.3-0.1
			c-1.1,0-2.2,0-3.3,0.1l-8.4-13.1H113v9.6l3.4,5.4c0,0-9.7,3.9-16.2,8.7l3.9,8.6l-5.7,18.3c0,0,5-3.4,11.1-7.1v8
			c0,0,3.2-2.1,6.4-3.6l-2.9,4.4v9.8h27.1V55.7l9.4,14.8l9.4-14.8v20.2H186v-9.8l-2.9-4.4c3.1,1.6,6.4,3.6,6.4,3.6v-8
			c6.1,3.6,11.1,7.1,11.1,7.1L194.8,46.1z M187.6,54.3l0,7.7c-2.2-1.3-4.6-2.5-7.1-3.6v3.2l3.4,5.2v7.1h-22.9v-21
			c-0.8-0.1-1.7-0.2-2.5-0.3l-8.9,14.1l-8.9-14.1c-0.8,0.1-1.7,0.2-2.5,0.3v21h-22.9v-7.1l3.4-5.2v-3.2c-2.5,1.1-4.9,2.3-7.1,3.6
			v-7.7c-3,1.5-6.4,3.4-9.6,5.6l4.4-14l-3.6-7.8c4.9-3.2,10.3-6,16-8.1v-1.7l-3.4-5.4v-6.9h21.5l8.3,13c1.5-0.1,3-0.1,4.5-0.1
			c1.5,0,3,0.1,4.5,0.1l8.3-13h21.5v6.9l-3.4,5.4v1.7c5.7,2.2,11,4.9,16,8.1l-3.6,7.8l4.4,14C194,57.7,190.6,55.8,187.6,54.3z"/>
		<path class="st0" d="M118.5,32.4c-4.7,1.9-9,4-13,6.5l3.1,6.8l-2.8,8.9c1.8-1,3.7-2,5.6-3V38.4c2.1-1.1,5.3-2.7,7.1-3.4V32.4z"/>
		<polygon class="st0" points="146.9,40.6 149.9,40.5 148.4,36.4 		"/>
		<path class="st0" d="M190.4,45.7l3.1-6.8c-4.1-2.5-8.3-4.7-13-6.5V35c1.8,0.7,5,2.3,7.1,3.4v13.3c1.9,0.9,3.8,1.9,5.6,3
			L190.4,45.7z"/>
	</g>
</g>
<g id="Black_White_Banner" class="st1">
	<g class="st2">
		<path d="M180.9,31.9c5.7,2.2,11.2,5,16.2,8.2l-3.6,7.9l4.4,14.2c-3.3-2.2-6.7-4.1-9.8-5.7l0,7.8c-2.3-1.4-4.7-2.6-7.2-3.7V64
			l3.4,5.3v7.2h-23.2V55.1c-0.8-0.1-1.7-0.2-2.5-0.3l-9,14.3l-9-14.3c-0.9,0.1-1.7,0.2-2.5,0.3v21.3h-23.2v-7.2l3.4-5.3v-3.3
			c-2.5,1.1-4.9,2.3-7.2,3.7v-7.8c-3,1.5-6.4,3.5-9.8,5.7l4.4-14.2l-3.6-7.9c5-3.3,10.4-6.1,16.2-8.2v-1.7l-3.4-5.5v-7h21.8
			l8.4,13.1c1.5-0.1,3.1-0.1,4.6-0.1c1.5,0,3.1,0.1,4.6,0.1l8.4-13.1h21.8v7l-3.4,5.5V31.9z"/>
		<path class="st3" d="M118.1,34.4c-4.8,1.9-9.1,4-13.2,6.6l3.2,6.9l-2.8,9.1c1.9-1.1,3.7-2.1,5.7-3V40.5c2.2-1.1,5.4-2.7,7.2-3.4
			V34.4z"/>
		<path class="st3" d="M149.5,51.8c12.1,0,25.1,3.1,36.1,8.6V42c-11-5.7-24-8.9-36.1-8.9c-12.1,0-25.1,3.2-36.1,8.9v18.4
			C124.4,54.9,137.4,51.8,149.5,51.8z"/>
		<path class="st3" d="M180.9,34.4c4.8,1.9,9.1,4,13.2,6.6l-3.2,6.9l2.8,9.1c-1.9-1.1-3.7-2.1-5.7-3V40.5c-2.2-1.1-5.4-2.7-7.2-3.4
			V34.4z"/>
		<g>
			<path d="M142.7,39.8c-0.8,0.1-1.5,0.1-2.3,0.2v-1.5l-2.4,0.3v8.8c0,0,1.1-0.2,1.1-0.2v2.3c-1.7,0.2-3.4,0.5-5.1,0.9v-2.3l1.1-0.2
				c0,0,0-8.8,0-8.8l-2.4,0.5v1.5c-0.7,0.2-1.5,0.3-2.2,0.5V38c4-1,8.1-1.7,12.2-2V39.8z M128.7,41.8c-0.9,0.3-1.9,0.5-2.8,0.8v-1
				l-4,1.4v3c0,0,3.7-1.3,5.2-1.8l1.6,1.1v4.3l-2.3,2.9c-1.8,0.5-3.5,1.2-5.2,1.8c-0.7-0.4-1.4-0.9-2-1.3v-1.6
				c0.9-0.4,1.8-0.7,2.7-1.1v1.6l0.4-0.1c1.1-0.4,3.6-1.3,3.6-1.3v-3.9c0,0-3.7,1.3-5.3,1.9l-1.5-1V44l2.2-3.1
				c1.7-0.7,3.5-1.3,5.2-1.8c0.7,0.5,1.4,0.9,2.1,1.4V41.8z M166.6,41.5c-0.7-0.2-1.5-0.3-2.2-0.5v-1.5L162,39v8.8
				c0,0,1.1,0.2,1.1,0.2v2.3c-1.7-0.3-3.4-0.6-5.2-0.8v-2.3l1.1,0.1c0,0,0-8.8,0-8.8l-2.4-0.3v1.5c-0.7-0.1-1.5-0.1-2.3-0.2v-3.9
				c4.1,0.3,8.2,0.9,12.2,1.8V41.5z M172.6,41.6v3.3c0,0,2.6,0.9,3.8,1.3v2c-1.1-0.4-3.8-1.3-3.8-1.3v3.5l4,1.4v-1
				c0.9,0.3,1.8,0.7,2.7,1.1v3.3c-3.5-1.5-7.1-2.7-10.7-3.6v-2.3l1.1,0.3c0,0,0-8.8,0-8.8c0,0-1.1-0.3-1.1-0.3v-2.3
				c3.6,0.9,7.2,2.2,10.7,3.6v3.1c-0.9-0.4-1.8-0.7-2.7-1.1V43C176.6,43,172.6,41.6,172.6,41.6z M148.4,38.5c0,0-1.5,4.2-1.5,4.2
				l2.9,0L148.4,38.5z M155.1,49.3c-1.6-0.1-3.3-0.2-4.9-0.2v-2.3l1.1,0c0,0-0.7-2.1-0.7-2.1l-4.4,0l-0.8,2.1c0,0,1.1,0,1.1,0v2.3
				c-1.6,0.1-3.1,0.2-4.7,0.3v-2.3l1.1-0.1c0,0,4-11.3,4-11.3c1,0,2.1,0,3.2,0l3.8,11.2c0,0,0.8,0.1,1.2,0.1V49.3z"/>
		</g>
	</g>
</g>
<g id="Maroon_White_Banner" class="st1">
	<g class="st2">
		<path class="st4" d="M180.9,31.9c5.7,2.2,11.2,5,16.2,8.2l-3.6,7.9l4.4,14.2c-3.3-2.2-6.7-4.1-9.8-5.7l0,7.8
			c-2.3-1.4-4.7-2.6-7.2-3.7V64l3.4,5.3v7.2h-23.2V55.1c-0.8-0.1-1.7-0.2-2.5-0.3l-9,14.3l-9-14.3c-0.9,0.1-1.7,0.2-2.5,0.3v21.3
			h-23.2v-7.2l3.4-5.3v-3.3c-2.5,1.1-4.9,2.3-7.2,3.7v-7.8c-3,1.5-6.4,3.5-9.8,5.7l4.4-14.2l-3.6-7.9c5-3.3,10.4-6.1,16.2-8.2v-1.7
			l-3.4-5.5v-7h21.8l8.4,13.1c1.5-0.1,3.1-0.1,4.6-0.1c1.5,0,3.1,0.1,4.6,0.1l8.4-13.1h21.8v7l-3.4,5.5V31.9z"/>
		<path class="st3" d="M118.1,34.4c-4.8,1.9-9.1,4-13.2,6.6l3.2,6.9l-2.8,9.1c1.9-1.1,3.7-2.1,5.7-3V40.5c2.2-1.1,5.4-2.7,7.2-3.4
			V34.4z"/>
		<path class="st3" d="M149.5,51.8c12.1,0,25.1,3.1,36.1,8.6V42c-11-5.7-24-8.9-36.1-8.9c-12.1,0-25.1,3.2-36.1,8.9v18.4
			C124.4,54.9,137.4,51.8,149.5,51.8z"/>
		<path class="st3" d="M180.9,34.4c4.8,1.9,9.1,4,13.2,6.6l-3.2,6.9l2.8,9.1c-1.9-1.1-3.7-2.1-5.7-3V40.5c-2.2-1.1-5.4-2.7-7.2-3.4
			V34.4z"/>
		<g>
			<path class="st4" d="M142.7,39.8c-0.8,0.1-1.5,0.1-2.3,0.2v-1.5l-2.4,0.3v8.8c0,0,1.1-0.2,1.1-0.2v2.3c-1.7,0.2-3.4,0.5-5.1,0.9
				v-2.3l1.1-0.2c0,0,0-8.8,0-8.8l-2.4,0.5v1.5c-0.7,0.2-1.5,0.3-2.2,0.5V38c4-1,8.1-1.7,12.2-2V39.8z M128.7,41.8
				c-0.9,0.3-1.9,0.5-2.8,0.8v-1l-4,1.4v3c0,0,3.7-1.3,5.2-1.8l1.6,1.1v4.3l-2.3,2.9c-1.8,0.5-3.5,1.2-5.2,1.8
				c-0.7-0.4-1.4-0.9-2-1.3v-1.6c0.9-0.4,1.8-0.7,2.7-1.1v1.6l0.4-0.1c1.1-0.4,3.6-1.3,3.6-1.3v-3.9c0,0-3.7,1.3-5.3,1.9l-1.5-1V44
				l2.2-3.1c1.7-0.7,3.5-1.3,5.2-1.8c0.7,0.5,1.4,0.9,2.1,1.4V41.8z M166.6,41.5c-0.7-0.2-1.5-0.3-2.2-0.5v-1.5L162,39v8.8
				c0,0,1.1,0.2,1.1,0.2v2.3c-1.7-0.3-3.4-0.6-5.2-0.8v-2.3l1.1,0.1c0,0,0-8.8,0-8.8l-2.4-0.3v1.5c-0.7-0.1-1.5-0.1-2.3-0.2v-3.9
				c4.1,0.3,8.2,0.9,12.2,1.8V41.5z M172.6,41.6v3.3c0,0,2.6,0.9,3.8,1.3v2c-1.1-0.4-3.8-1.3-3.8-1.3v3.5l4,1.4v-1
				c0.9,0.3,1.8,0.7,2.7,1.1v3.3c-3.5-1.5-7.1-2.7-10.7-3.6v-2.3l1.1,0.3c0,0,0-8.8,0-8.8c0,0-1.1-0.3-1.1-0.3v-2.3
				c3.6,0.9,7.2,2.2,10.7,3.6v3.1c-0.9-0.4-1.8-0.7-2.7-1.1V43C176.6,43,172.6,41.6,172.6,41.6z M148.4,38.5c0,0-1.5,4.2-1.5,4.2
				l2.9,0L148.4,38.5z M155.1,49.3c-1.6-0.1-3.3-0.2-4.9-0.2v-2.3l1.1,0c0,0-0.7-2.1-0.7-2.1l-4.4,0l-0.8,2.1c0,0,1.1,0,1.1,0v2.3
				c-1.6,0.1-3.1,0.2-4.7,0.3v-2.3l1.1-0.1c0,0,4-11.3,4-11.3c1,0,2.1,0,3.2,0l3.8,11.2c0,0,0.8,0.1,1.2,0.1V49.3z"/>
		</g>
	</g>
</g>
<g id="MSU_-_LINE_-_TEXT">
	<g>
		<polyline class="st0" points="14.5,132.7 284.5,132.7 284.5,130.9 14.5,130.9 		"/>
		<g>
			<g>
				<g>
					<path class="st0" d="M38.4,99.4v-8.6l-4.1,7.5l-4.1-7.5v8.6l1.3,0.9v2.5H25v-2.5l1.3-0.9V87.2L25,86.3v-2.6h5.7l3.7,6.7
						l3.8-6.7h5.6v2.6l-1.3,0.9v12.2l1.3,0.9v2.5h-6.6v-2.5L38.4,99.4z"/>
					<path class="st0" d="M54.3,102.8h-7v-2.5l1.4-0.9V87.2l-1.4-0.9v-2.6h7v2.6l-1.3,0.9v12.2l1.3,0.9V102.8z"/>
					<path class="st0" d="M70.1,86.6l0.3,0.3V89h-4.3v-0.9l-0.5-0.5h-3l-0.5,0.5v2.7l0.1,0.1h5.9l2,2.1l0.3,0.3v6.2l-2.9,3.2h-6.8
						l-2.6-3l-0.2-0.3v-2.6h4.3v1.5l0.5,0.7h2.9l0.6-0.7v-3.7L66,94.6H60L57.8,92v-5.1l2.6-2.8l0.3-0.3h6.8L70.1,86.6z"/>
					<path class="st0" d="M86.3,86.6l0.3,0.3V89h-4.3v-0.9l-0.5-0.5h-3l-0.5,0.5v2.7l0.1,0.1h5.9l2,2.1l0.3,0.3v6.2l-2.9,3.2h-6.8
						l-2.6-3L74,99.6v-2.6h4.3v1.5l0.5,0.7h2.9l0.6-0.7v-3.7l-0.1-0.1h-6.1L74,92v-5.1l2.6-2.8l0.3-0.3h6.8L86.3,86.6z"/>
					<path class="st0" d="M97.1,102.8h-7v-2.5l1.4-0.9V87.2l-1.4-0.9v-2.6h7v2.6l-1.3,0.9v12.2l1.3,0.9V102.8z"/>
					<path class="st0" d="M113,86.6l0.3,0.3V89H109v-0.9l-0.5-0.5h-3l-0.5,0.5v2.7l0.1,0.1h5.9l2,2.1l0.3,0.3v6.2l-2.9,3.2h-6.8
						l-2.6-3l-0.2-0.3v-2.6h4.3v1.5l0.5,0.7h2.9l0.6-0.7v-3.7l-0.1-0.1h-6.1l-2.1-2.6v-5.1l2.6-2.8l0.3-0.3h6.8L113,86.6z"/>
					<path class="st0" d="M129.2,86.6l0.3,0.3V89h-4.3v-0.9l-0.5-0.5h-3l-0.5,0.5v2.7l0.1,0.1h5.9l2,2.1l0.3,0.3v6.2l-2.9,3.2h-6.8
						l-2.6-3l-0.2-0.3v-2.6h4.3v1.5l0.5,0.7h2.9l0.6-0.7v-3.7l-0.1-0.1H119l-2.1-2.6v-5.1l2.6-2.8l0.3-0.3h6.8L129.2,86.6z"/>
					<path class="st0" d="M140,102.8h-7v-2.5l1.4-0.9V87.2l-1.4-0.9v-2.6h7v2.6l-1.3,0.9v12.2l1.3,0.9V102.8z"/>
					<path class="st0" d="M157.1,86.6l0.3,0.3v6.2l-2.7,2.8l-0.3,0.3h-5.2v3.1l1.4,0.9v2.5h-7.1v-2.5l1.4-0.9V87.2l-1.4-0.9v-2.6
						h10.8L157.1,86.6z M153,88.1l-0.5-0.5h-3.3v4.7h3.3l0.5-0.5V88.1z"/>
					<path class="st0" d="M173.8,86.6l0.3,0.3v6.2l-2.7,2.8l-0.3,0.3H166v3.1l1.4,0.9v2.5h-7.1v-2.5l1.4-0.9V87.2l-1.4-0.9v-2.6
						h10.8L173.8,86.6z M169.8,88.1l-0.5-0.5H166v4.7h3.3l0.5-0.5V88.1z"/>
					<path class="st0" d="M184.1,102.8h-7v-2.5l1.4-0.9V87.2l-1.4-0.9v-2.6h7v2.6l-1.3,0.9v12.2l1.3,0.9V102.8z"/>
					<path class="st0" d="M209.3,86.6l0.3,0.3V89h-4.3v-0.9l-0.5-0.5h-3l-0.5,0.5v2.7l0.1,0.1h5.9l2,2.1l0.3,0.3v6.2l-2.9,3.2h-6.8
						l-2.6-3l-0.2-0.3v-2.6h4.3v1.5l0.5,0.7h2.9l0.6-0.7v-3.7l-0.1-0.1h-6.1L197,92v-5.1l2.6-2.8l0.3-0.3h6.8L209.3,86.6z"/>
					<path class="st0" d="M212.3,83.7h15.3v6H224v-2.1h-2v11.7l1.3,0.9v2.5h-7v-2.5l1.3-0.9V87.6h-2v2.1h-3.5V83.7z"/>
					<path class="st0" d="M243.1,100.3v2.5h-6.7v-2.6l1.3-0.8l-0.8-2.6h-4.4l-0.8,2.6l1.3,0.8v2.6h-6.3v-2.5l1.2-1l4.6-14.9l0.2-0.7
						h4.4l4.6,15.6L243.1,100.3z M236.1,94l-1.3-4.5l-1.4,4.5H236.1z"/>
					<path class="st0" d="M242,83.7h15.3v6h-3.5v-2.1h-2v11.7l1.3,0.9v2.5h-7v-2.5l1.3-0.9V87.6h-2v2.1H242V83.7z"/>
					<path class="st0" d="M260.1,83.7H274v6h-4.3v-2h-4v3.7h4.6v3.6h-4.6v4h4v-1.4h4.3v5.3h-13.9v-2.5l1.4-0.9V87.2l-1.4-0.9V83.7z"
						/>
				</g>
				<g>
					<path class="st0" d="M83.2,110.5v5c0,0.3,0,0.5,0,0.7c0,0.2,0,0.3,0,0.4c0,0.2,0.1,0.4,0.3,0.6c0.3,0.4,0.7,0.6,1.3,0.6
						c0.6,0,1-0.2,1.3-0.6c0.1-0.2,0.2-0.4,0.3-0.6c0-0.1,0-0.3,0-0.5c0-0.2,0-0.4,0-0.7v-5h2.4v5.3c0,0.8-0.1,1.4-0.3,1.8
						c-0.2,0.5-0.5,0.9-0.9,1.3c-0.8,0.7-1.7,1.1-3,1.1c-1.3,0-2.3-0.4-3.1-1.1c-0.3-0.3-0.6-0.7-0.7-1.2c-0.1-0.5-0.2-1.1-0.2-1.9
						v-5.3H83.2z"/>
					<path class="st0" d="M97.4,119.8v-9.3h2.4l4.4,5.7v-5.7h2.4v9.3h-2.4l-4.4-5.7v5.7H97.4z"/>
					<path class="st0" d="M117.5,110.5v9.3h-2.4v-9.3H117.5z"/>
					<path class="st0" d="M127.7,110.5l2.2,5.6l2.2-5.6h2.6l-3.9,9.3H129l-3.9-9.3H127.7z"/>
					<path class="st0" d="M147.6,112.6h-2.9v1.5h2.7v2h-2.7v1.6h2.9v2h-5.3v-9.3h5.3V112.6z"/>
					<path class="st0" d="M160.5,116l2.9,3.8h-3l-2.3-3.6v3.6h-2.4v-9.3h3.7c1.1,0,1.9,0.3,2.4,1c0.4,0.5,0.6,1.2,0.6,1.9
						c0,0.7-0.2,1.3-0.5,1.7C161.7,115.5,161.2,115.8,160.5,116z M158.1,114.7h0.5c0.5,0,0.8-0.1,1.1-0.3c0.3-0.2,0.4-0.5,0.4-0.8
						c0-0.4-0.1-0.6-0.4-0.8c-0.3-0.2-0.6-0.3-1.1-0.3h-0.5V114.7z"/>
					<path class="st0" d="M177,111.1l-1,1.9c-0.5-0.4-1-0.6-1.6-0.6c-0.3,0-0.5,0.1-0.7,0.2c-0.2,0.1-0.3,0.3-0.3,0.6
						c0,0.2,0.2,0.5,0.5,0.6c0.1,0.1,0.5,0.2,1.2,0.4c0.8,0.2,1.4,0.6,1.7,1c0.4,0.4,0.5,0.9,0.5,1.6c0,1-0.3,1.9-1,2.4
						c-0.6,0.6-1.5,0.9-2.7,0.9c-1.1,0-2.2-0.3-3.2-1l1-1.9c0.7,0.6,1.4,0.9,2.1,0.9c0.2,0,0.3,0,0.5-0.1c0.1,0,0.3-0.1,0.4-0.2
						c0.1-0.1,0.2-0.2,0.2-0.3c0.1-0.1,0.1-0.2,0.1-0.4c0-0.2-0.1-0.4-0.3-0.6c-0.2-0.2-0.6-0.3-1.1-0.5c-0.9-0.3-1.5-0.5-1.8-0.7
						c-0.5-0.4-0.7-1-0.7-1.8c0-0.9,0.3-1.7,0.9-2.3c0.6-0.6,1.3-0.9,2.3-0.9C175.1,110.3,176.1,110.6,177,111.1z"/>
					<path class="st0" d="M187.9,110.5v9.3h-2.4v-9.3H187.9z"/>
					<path class="st0" d="M199.9,112.6v7.2h-2.4v-7.2h-2v-2h6.4v2H199.9z"/>
					<path class="st0" d="M212.4,115.3l-3.3-4.8h2.9l1.8,2.5l1.7-2.5h2.9l-3.5,4.8v4.5h-2.4V115.3z"/>
				</g>
			</g>
			<g>
				<path class="st0" d="M222.6,116.4v0.5h-1.1v2.8h-0.7V117h-1.1v-0.5H222.6z M226.2,119.7l-0.1-1.9c0-0.3,0-0.6,0-0.9h0
					c-0.1,0.3-0.2,0.7-0.3,1l-0.6,1.8h-0.7l-0.6-1.9c-0.1-0.3-0.2-0.6-0.2-0.9h0c0,0.3,0,0.6,0,0.9l-0.1,1.9h-0.6l0.2-3.3h1l0.6,1.6
					c0.1,0.3,0.1,0.5,0.2,0.8h0c0.1-0.3,0.2-0.6,0.2-0.8l0.6-1.6h0.9l0.3,3.3H226.2z"/>
			</g>
		</g>
		<g>
			<path class="st0" d="M45.6,140.6v8.3c0,0.8,0,1.4,0.1,1.8c0.1,0.4,0.3,0.8,0.5,1.1c0.3,0.4,0.7,0.7,1.2,0.9
				c0.5,0.2,1,0.3,1.5,0.3c0.5,0,1-0.1,1.5-0.3c0.5-0.2,0.9-0.5,1.2-0.9c0.2-0.3,0.4-0.7,0.5-1.1c0.1-0.4,0.1-1,0.1-1.8v-8.3h1.5
				v8.7c0,0.8-0.1,1.5-0.3,2.1c-0.2,0.6-0.5,1-0.9,1.5c-1,1-2.2,1.5-3.6,1.5c-1.5,0-2.7-0.5-3.7-1.5c-0.4-0.4-0.7-0.9-0.9-1.5
				c-0.2-0.5-0.3-1.2-0.3-2.1v-8.7H45.6z"/>
			<path class="st0" d="M57.2,154.2v-14.1l10.6,11.1v-10.5h1.5v14.2l-10.6-11.1v10.5H57.2z"/>
			<path class="st0" d="M74.3,140.6v13.6h-1.5v-13.6H74.3z"/>
			<path class="st0" d="M77.7,140.6l3.8,10.3l3.9-10.3h1.6L81.6,155l-5.5-14.4H77.7z"/>
			<path class="st0" d="M95.9,142.1h-5.5v4h5.4v1.4h-5.4v5.3h5.5v1.4h-7v-13.6h7V142.1z"/>
			<path class="st0" d="M102.2,148.1l4.3,6.1h-1.8l-4.1-6h-0.4v6h-1.5v-13.6h2.2c1.6,0,2.8,0.3,3.5,0.9c0.8,0.7,1.2,1.6,1.2,2.9
				c0,1-0.3,1.9-0.9,2.5C104,147.7,103.2,148.1,102.2,148.1z M100.1,146.9h0.9c1,0,1.7-0.2,2.2-0.6c0.5-0.4,0.8-1,0.8-1.8
				c0-1.6-1-2.4-3-2.4h-0.9V146.9z"/>
			<path class="st0" d="M116,142.5l-1.2,0.8c-0.3-0.6-0.7-0.9-1-1.2c-0.3-0.2-0.8-0.3-1.3-0.3c-0.6,0-1.2,0.2-1.6,0.6
				c-0.4,0.4-0.6,0.9-0.6,1.5c0,0.8,0.6,1.5,1.9,2l1.3,0.6c1.1,0.5,1.9,1,2.4,1.6c0.5,0.6,0.7,1.3,0.7,2.1c0,1.2-0.4,2.2-1.2,3
				c-0.8,0.8-1.9,1.2-3.1,1.2c-1.1,0-2-0.3-2.7-0.9c-0.7-0.6-1.2-1.5-1.5-2.6l1.5-0.4c0.4,1.7,1.3,2.5,2.8,2.5
				c0.8,0,1.4-0.3,1.9-0.8c0.5-0.5,0.8-1.1,0.8-1.9c0-0.6-0.2-1-0.5-1.4c-0.3-0.4-0.9-0.8-1.8-1.1l-1.2-0.6
				c-0.5-0.2-0.9-0.4-1.3-0.7c-0.3-0.2-0.6-0.5-0.8-0.8c-0.4-0.5-0.6-1.2-0.6-1.9c0-1,0.4-1.8,1.1-2.5c0.7-0.7,1.6-1,2.7-1
				C114,140.4,115.2,141.1,116,142.5z"/>
			<path class="st0" d="M120.7,140.6v13.6h-1.5v-13.6H120.7z"/>
			<path class="st0" d="M127.5,142.1v12.2h-1.5v-12.2h-3.3v-1.4h8.1v1.4H127.5z"/>
			<path class="st0" d="M136.3,148.4l-4.4-7.7h1.7l3.5,6.1l3.5-6.1h1.8l-4.5,7.7v5.8h-1.5V148.4z"/>
			<path class="st0" d="M153.2,148.1l4.3,6.1h-1.8l-4.1-6h-0.4v6h-1.5v-13.6h2.2c1.6,0,2.8,0.3,3.5,0.9c0.8,0.7,1.2,1.6,1.2,2.9
				c0,1-0.3,1.9-0.9,2.5C155,147.7,154.2,148.1,153.2,148.1z M151.1,146.9h0.9c1,0,1.7-0.2,2.2-0.6c0.5-0.4,0.8-1,0.8-1.8
				c0-1.6-1-2.4-3-2.4h-0.9V146.9z"/>
			<path class="st0" d="M166.8,142.1h-5.5v4h5.4v1.4h-5.4v5.3h5.5v1.4h-7v-13.6h7V142.1z"/>
			<path class="st0" d="M179.8,141.8v1.9c-1.3-1.2-2.6-1.8-4.1-1.8c-1.5,0-2.8,0.6-3.9,1.7c-1.1,1.1-1.6,2.4-1.6,4
				c0,1.7,0.6,3.1,1.9,4.1c1.1,0.9,2.3,1.4,3.6,1.4c1.5,0,2.8-0.6,4.1-1.8v1.9c-1.3,0.9-2.7,1.3-4.1,1.3c-1.9,0-3.6-0.7-5-2.1
				c-1.4-1.4-2.1-3-2.1-4.9c0-1.9,0.7-3.6,2.1-5c1.4-1.4,3.1-2.1,5-2.1C177.2,140.4,178.6,140.9,179.8,141.8z"/>
			<path class="st0" d="M186.1,148.1l4.3,6.1h-1.8l-4.1-6H184v6h-1.5v-13.6h2.2c1.6,0,2.8,0.3,3.5,0.9c0.8,0.7,1.2,1.6,1.2,2.9
				c0,1-0.3,1.9-0.9,2.5C187.9,147.7,187.1,148.1,186.1,148.1z M184,146.9h0.9c1,0,1.7-0.2,2.2-0.6c0.5-0.4,0.8-1,0.8-1.8
				c0-1.6-1-2.4-3-2.4H184V146.9z"/>
			<path class="st0" d="M199.7,142.1h-5.5v4h5.4v1.4h-5.4v5.3h5.5v1.4h-7v-13.6h7V142.1z"/>
			<path class="st0" d="M209.8,150.4H204l-1.6,3.8h-1.6L207,140l6.1,14.2h-1.7L209.8,150.4z M209.2,149l-2.3-5.4l-2.3,5.4H209.2z"/>
			<path class="st0" d="M217.4,142.1v12.2h-1.5v-12.2h-3.3v-1.4h8.1v1.4H217.4z"/>
			<path class="st0" d="M224.2,140.6v13.6h-1.5v-13.6H224.2z"/>
			<path class="st0" d="M226.8,147.4c0-1.9,0.7-3.5,2.1-4.9c1.4-1.4,3.1-2.1,5-2.1c1.9,0,3.6,0.7,5,2.1c1.4,1.4,2.1,3,2.1,4.9
				c0,1.9-0.7,3.6-2.1,5c-1.4,1.4-3.1,2-5,2c-1.7,0-3.3-0.6-4.7-1.8C227.6,151.3,226.8,149.5,226.8,147.4z M228.4,147.4
				c0,1.7,0.6,3,1.7,4.1c1.1,1,2.4,1.5,3.8,1.5c1.5,0,2.9-0.5,4-1.6c1.1-1.1,1.6-2.4,1.6-4c0-1.6-0.5-2.9-1.6-4
				c-1.1-1.1-2.4-1.6-3.9-1.6c-1.5,0-2.8,0.5-3.9,1.6C228.9,144.5,228.4,145.8,228.4,147.4z"/>
			<path class="st0" d="M243.7,154.2v-14.1l10.6,11.1v-10.5h1.5v14.2l-10.6-11.1v10.5H243.7z"/>
		</g>
	</g>
</g>
</svg>
